<?xml version="1.0" encoding="UTF-8" standalone="no"?>
<svg xmlns="http://www.w3.org/2000/svg" width="1200" height="800">
  <!-- Styles -->
  <style>
    text { font-family: Arial; fill: #333; }
    .title { font-size: 24px; font-weight: bold; }
    .step { font-size: 16px; }
    .arrow { stroke: #666; stroke-width: 2; fill: none; marker-end: url(#arrowhead); }
    .parallel-box { fill: none; stroke: #4a90e2; stroke-width: 2; stroke-dasharray: 5,5; }
    .process-box { fill: #f5f5f5; stroke: #333; stroke-width: 2; }
    .timeout-box { fill: #fff0f0; stroke: #ff6b6b; stroke-width: 2; }
  </style>

  <!-- Arrow Marker -->
  <defs>
    <marker id="arrowhead" markerWidth="10" markerHeight="7" refX="9" refY="3.5" orient="auto">
      <polygon points="0 0, 10 3.5, 0 7" fill="#666"/>
    </marker>
  </defs>

  <!-- Title -->
  <text x="50" y="50" class="title">Enhanced Research Paper Analysis Pipeline with Rate Limiting</text>

  <!-- Initial Pipeline -->
  <rect x="50" y="100" width="200" height="60" class="process-box" rx="5"/>
  <text x="150" y="135" class="step" text-anchor="middle">Research Question Input</text>

  <path d="M 250 130 L 350 130" class="arrow"/>

  <!-- Keyword Extraction with Fallback -->
  <rect x="350" y="100" width="200" height="60" class="process-box" rx="5"/>
  <text x="450" y="125" class="step" text-anchor="middle">Keyword Extraction</text>
  <text x="450" y="145" class="step" text-anchor="middle">(Together AI/OpenAI)</text>

  <path d="M 550 130 L 650 130" class="arrow"/>

  <!-- ArXiv Search with Rate Limiting -->
  <rect x="650" y="100" width="200" height="60" class="process-box" rx="5"/>
  <text x="750" y="125" class="step" text-anchor="middle">ArXiv Search</text>
  <text x="750" y="145" class="step" text-anchor="middle">(Rate Limited)</text>

  <!-- Parallel Processing Section -->
  <rect x="50" y="200" width="1100" height="400" class="parallel-box"/>
  <text x="100" y="230" class="step">Parallel Processing Pipeline (Max 3 Workers)</text>

  <!-- Parallel Pipeline with Timeouts -->
  <g transform="translate(100,280)">
    <!-- Abstract Analysis -->
    <rect width="180" height="50" class="process-box" rx="5"/>
    <text x="90" y="30" class="step" text-anchor="middle">Abstract Analysis</text>
    <path d="M 90 50 L 90 100" class="arrow"/>

    <!-- Paper Analysis -->
    <rect y="100" width="180" height="50" class="timeout-box" rx="5"/>
    <text x="90" y="130" class="step" text-anchor="middle">Full Paper Analysis</text>
    <text x="90" y="145" class="step" text-anchor="middle">(5min timeout)</text>
    <path d="M 90 150 L 90 200" class="arrow"/>

    <!-- Hypothesis Generation -->
    <rect y="200" width="180" height="50" class="timeout-box" rx="5"/>
    <text x="90" y="225" class="step" text-anchor="middle">Hypothesis Generation</text>
    <text x="90" y="240" class="step" text-anchor="middle">(Rate Limited)</text>
    <path d="M 90 250 L 90 300" class="arrow"/>

    <!-- Experiment Design -->
    <rect y="300" width="180" height="50" class="timeout-box" rx="5"/>
    <text x="90" y="325" class="step" text-anchor="middle">Experiment Design</text>
    <text x="90" y="340" class="step" text-anchor="middle">(Rate Limited)</text>
  </g>

  <!-- Parallel Pipelines -->
  <g transform="translate(350,280)">
    <rect width="180" height="350" class="process-box" rx="5" opacity="0.5"/>
    <text x="90" y="175" class="step" text-anchor="middle">Pipeline 2</text>
  </g>

  <g transform="translate(600,280)">
    <rect width="180" height="350" class="process-box" rx="5" opacity="0.3"/>
    <text x="90" y="175" class="step" text-anchor="middle">Pipeline 3</text>
  </g>

  <!-- Results Aggregation -->
  <rect x="50" y="650" width="1100" height="100" class="process-box" rx="5"/>
  <text x="600" y="680" class="step" text-anchor="middle">Results Aggregation</text>
  <text x="600" y="705" class="step" text-anchor="middle">• Consolidate Hypotheses</text>
  <text x="600" y="730" class="step" text-anchor="middle">• Group Experimental Designs</text>
</svg>